<svg xmlns="http://www.w3.org/2000/svg" xmlns:xlink="http://www.w3.org/1999/xlink" fill="#000" viewBox="0 0 512 512" xmlns:v="https://vecta.io/nano"><path d="M488.542 174.916H293.737V27.028c0-10.686-8.693-19.378-19.378-19.378h-36.717c-10.686 0-19.378 8.693-19.378 19.378v147.888H23.458C10.524 174.916 0 185.439 0 198.375v50.57c0 12.936 10.524 23.458 23.458 23.458h3.375l26.437 187.89c3.534 25.117 25.327 44.057 50.691 44.057h304.076c25.365 0 47.157-18.941 50.691-44.057l26.438-187.891h3.375c12.936 0 23.458-10.523 23.458-23.458v-50.57c.001-12.935-10.521-23.458-23.457-23.458zM238.661 28.048h34.677v194.805h-34.677V28.048zM438.53 457.451c-2.125 15.108-15.235 26.502-30.492 26.502H103.961c-15.257 0-28.366-11.393-30.492-26.502L47.432 272.402h417.135L438.53 457.451zm53.072-208.507c0 1.687-1.373 3.06-3.06 3.06H23.458c-1.687 0-3.06-1.373-3.06-3.06v-50.57c0-1.687 1.373-3.06 3.06-3.06h194.805v28.558c0 10.686 8.693 19.378 19.378 19.378h36.717c10.686 0 19.378-8.693 19.378-19.378v-28.558h194.805c1.687 0 3.06 1.373 3.06 3.06v50.57z"/><use xlink:href="#B"/><use xlink:href="#B" x="58.34"/><use xlink:href="#B" x="116.679"/><use xlink:href="#C"/><use xlink:href="#C" x="58.339"/><path d="M401.849 296.287c-5.632 0-10.199 4.567-10.199 10.199v8.164c0 5.632 4.567 10.199 10.199 10.199s10.199-4.567 10.199-10.199v-8.164c0-5.632-4.567-10.199-10.199-10.199zm0 46.917c-5.632 0-10.199 4.567-10.199 10.199v95.871c0 5.632 4.567 10.199 10.199 10.199s10.199-4.567 10.199-10.199v-95.871c0-5.632-4.567-10.199-10.199-10.199z"/><defs ><path id="B" d="M110.151 296.287a10.2 10.2 0 0 0-10.199 10.199v142.789a10.2 10.2 0 0 0 10.199 10.199 10.2 10.2 0 0 0 10.199-10.199V306.486a10.2 10.2 0 0 0-10.199-10.199z"/><path id="C" d="M285.17 296.287c-5.632 0-10.199 4.567-10.199 10.199v142.789a10.2 10.2 0 0 0 10.199 10.199c5.632 0 10.199-4.567 10.199-10.199V306.486c0-5.632-4.567-10.199-10.199-10.199z"/></defs></svg>