<svg xmlns="http://www.w3.org/2000/svg" fill="#999999" viewBox="0 0 1000 1000"  xmlns:v="https://vecta.io/nano"><path d="M462.26 10.31c-69.38 7.09-121.32 21.47-178.24 49.45-50.02 24.53-85.67 49.83-126.3 89.12-41.78 40.82-72.26 82.8-98.13 135.31-24.15 49.45-38.91 97.94-47.15 155.24-3.26 22.62-3.26 98.13 0 120.75 13.61 95.06 50.41 180.35 108.29 250.69 135.31 164.25 359.55 222.9 557.15 145.85 126.49-49.45 229.22-152.37 279.05-279.63 20.32-52.32 30.67-102.53 32.77-160.99 4.6-132.63-44.66-260.46-137.42-356.29-42.17-43.51-83.37-73.6-137.04-99.85-48.3-23.77-92.76-37.76-146.62-46-19.34-2.88-89.68-5.37-106.36-3.65zM564.8 59.95c84.52 13.22 162.33 49.06 226.16 104.07l6.71 5.94L665.8 302.02l7.47 1.34c4.03.77 15.53 3.45 25.3 6.13l18.02 4.98 112.89-112.7 5.94 6.71c78.96 91.42 117.87 211.59 106.75 331.57-19.35 212.75-189.55 382.94-402.29 402.3-119.98 11.12-240.15-27.79-331.57-106.75l-6.71-5.94 96.98-97.36-2.88-11.69c-1.73-6.33-3.64-17.06-4.22-23.77s-1.53-13.42-1.92-14.76c-.57-1.92-22.04 18.02-60.37 56.54l-59.41 59.22-5.94-6.71C73.97 687.06 37.17 548.3 63.81 413.56c22.42-114.23 89.12-214.66 186.67-281.54 58.65-40.25 131.86-66.89 205.07-74.94 23-2.49 85.29-.77 109.25 2.87zm-73.41 81.46c-18.78 17.06-36.8 46.38-45.42 73.79-5.94 18.97-7.47 55.58-2.87 77.81 4.03 20.51 11.88 39.29 23.96 57.69 9.58 14.57 29.13 36.03 32.77 36.03 3.26 0 21.85-19.93 30.09-32.2 21.08-31.05 29.33-57.31 29.33-94.68 0-42.93-15.72-81.07-46.77-113.84l-12.27-12.84-8.82 8.24zM342.48 332.3l-12.84 1.92c-10.16 1.15-11.12 4.6-8.24 29.32 5.18 45.81 26.83 81.07 65.16 106.95 25.49 17.05 51.94 28.74 84.14 36.99 25.68 6.52 23.96 8.05 22.62-20.7-2.11-41.02-11.5-75.32-27.02-98.7-16.1-24.15-46.57-45.04-75.9-51.75-13.23-3.07-39.87-5.37-47.92-4.03zm283.08.77c-27.79 3.45-54.43 15.52-73.98 33.73-28.18 26.06-42.75 64.2-45.62 119.98-1.34 28.75-3.07 27.22 22.62 20.7 74.36-18.98 124.77-58.46 142.4-111.35 5.37-15.91 9.39-45.81 7.67-55-.96-4.98-2.3-5.94-8.24-6.9-14.96-2.31-32.4-2.7-44.85-1.16zM329.44 497.32c-9.39 1.15-10.92 6.13-8.24 27.98 5.75 49.06 26.06 82.22 67.08 109.63 20.31 13.61 39.1 22.61 62.48 30.28 17.44 5.75 40.63 10.92 42.16 9.39 1.53-1.73 1.15-24.92-.96-43.51-4.22-36.8-17.82-72.45-35.46-92.38-16.87-19.17-43.7-33.92-72.26-39.87-12.25-2.67-39.65-3.25-54.8-1.52zm284.23 1.34c-62.48 14.57-97.17 57.3-106.17 130.52-2.11 18.01-2.88 43.7-1.15 45.42 3.26 3.07 47.34-9.78 71.68-20.7 22.23-10.16 49.83-29.71 64.21-45.04 14.76-16.1 26.06-37.18 31.81-59.99 4.6-18.21 5.94-45.8 2.3-49.45-3.45-3.44-48.11-4.02-62.68-.76zM332.51 660.61c-4.98.77-9.77 1.92-10.54 2.88-2.68 2.68-.77 31.82 3.26 48.3 5.94 25.3 21.08 52.32 37.95 67.46 28.94 26.07 65.93 45.23 106.75 55.2 10.54 2.49 20.32 4.6 21.85 4.6 2.3 0 2.49-4.22 1.53-24.53-2.88-53.66-16.29-91.23-41.97-116.91-29.13-29.33-73.98-43.13-118.83-37zm285 .96c-26.64 4.98-51.94 18.21-69.76 35.84-25.49 25.68-39.29 64.01-41.78 117.1-.96 21.08-.77 24.53 1.73 24.53 6.52 0 43.12-10.35 58.65-16.48 36.41-14.57 70.34-39.29 86.44-62.67 14.18-20.89 21.66-41.59 25.3-70.53 2.11-17.44 1.15-25.68-3.45-27.41-6.92-2.68-44.1-2.87-57.13-.38z"/></svg>